<svg version="1.2" xmlns="http://www.w3.org/2000/svg" viewBox="0 0 250 250" width="250" height="250">
	<title>33758717_8069737-svg</title>
	<defs>
		<linearGradient id="g1" x2="1" gradientUnits="userSpaceOnUse" gradientTransform="matrix(41.851,41.851,-42.206,42.206,179.138,81.285)">
			<stop offset="0" stop-color="#4776e6"/>
			<stop offset=".182" stop-color="#477ce6"/>
			<stop offset=".423" stop-color="#478de6"/>
			<stop offset=".696" stop-color="#47a8e6"/>
			<stop offset=".992" stop-color="#47cee6"/>
			<stop offset="1" stop-color="#47cfe6"/>
		</linearGradient>
		<linearGradient id="g2" x2="1" gradientUnits="userSpaceOnUse" gradientTransform="matrix(42.206,42.206,-41.852,41.852,105.187,4.754)">
			<stop offset="0" stop-color="#4776e6"/>
			<stop offset=".182" stop-color="#477ce6"/>
			<stop offset=".423" stop-color="#478de6"/>
			<stop offset=".696" stop-color="#47a8e6"/>
			<stop offset=".992" stop-color="#47cee6"/>
			<stop offset="1" stop-color="#47cfe6"/>
		</linearGradient>
		<linearGradient id="g3" x2="1" gradientUnits="userSpaceOnUse" gradientTransform="matrix(41.851,41.851,-42.206,42.206,29.012,78.706)">
			<stop offset="0" stop-color="#4776e6"/>
			<stop offset=".182" stop-color="#477ce6"/>
			<stop offset=".423" stop-color="#478de6"/>
			<stop offset=".696" stop-color="#47a8e6"/>
			<stop offset=".992" stop-color="#47cee6"/>
			<stop offset="1" stop-color="#47cfe6"/>
		</linearGradient>
		<linearGradient id="g4" x2="1" gradientUnits="userSpaceOnUse" gradientTransform="matrix(42.206,42.206,-41.851,41.851,103.608,154.881)">
			<stop offset="0" stop-color="#4776e6"/>
			<stop offset=".182" stop-color="#477ce6"/>
			<stop offset=".423" stop-color="#478de6"/>
			<stop offset=".696" stop-color="#47a8e6"/>
			<stop offset=".992" stop-color="#47cee6"/>
			<stop offset="1" stop-color="#47cfe6"/>
		</linearGradient>
		<linearGradient id="g5" x2="1" gradientUnits="userSpaceOnUse" gradientTransform="matrix(-63.856,57.134,-44.276,-49.485,205.09,-13.723)">
			<stop offset="0" stop-color="#8e54e9"/>
			<stop offset=".594" stop-color="#6567e7"/>
			<stop offset="1" stop-color="#4776e6"/>
		</linearGradient>
		<linearGradient id="g6" x2="1" gradientUnits="userSpaceOnUse" gradientTransform="matrix(-67.388,60.294,-60.292,-67.385,227.833,1.252)">
			<stop offset="0" stop-color="#8e54e9"/>
			<stop offset=".594" stop-color="#6567e7"/>
			<stop offset="1" stop-color="#4776e6"/>
		</linearGradient>
		<linearGradient id="g7" x2="1" gradientUnits="userSpaceOnUse" gradientTransform="matrix(-0.378,193.042,-446.207,-0.874,106.536,3.208)">
			<stop offset="0" stop-color="#8e54e9"/>
			<stop offset=".594" stop-color="#6567e7"/>
			<stop offset="1" stop-color="#4776e6"/>
		</linearGradient>
		<linearGradient id="g8" x2="1" gradientUnits="userSpaceOnUse" gradientTransform="matrix(-0.502,255.863,-255.894,-0.502,52.672,-52.001)">
			<stop offset="0" stop-color="#8e54e9"/>
			<stop offset=".594" stop-color="#6567e7"/>
			<stop offset="1" stop-color="#4776e6"/>
		</linearGradient>
		<linearGradient id="g9" x2="1" gradientUnits="userSpaceOnUse" gradientTransform="matrix(-6.008,3065.305,-972.632,-1.906,72.361,-1391.004)">
			<stop offset="0" stop-color="#8e54e9"/>
			<stop offset=".594" stop-color="#6567e7"/>
			<stop offset="1" stop-color="#4776e6"/>
		</linearGradient>
		<linearGradient id="g10" x2="1" gradientUnits="userSpaceOnUse" gradientTransform="matrix(-0.502,255.893,-255.893,-0.502,52.47,-94.869)">
			<stop offset="0" stop-color="#8e54e9"/>
			<stop offset=".594" stop-color="#6567e7"/>
			<stop offset="1" stop-color="#4776e6"/>
		</linearGradient>
		<linearGradient id="g11" x2="1" gradientUnits="userSpaceOnUse" gradientTransform="matrix(-6.008,3065.175,-972.964,-1.907,183.402,-1349.501)">
			<stop offset="0" stop-color="#8e54e9"/>
			<stop offset=".594" stop-color="#6567e7"/>
			<stop offset="1" stop-color="#4776e6"/>
		</linearGradient>
		<linearGradient id="g12" x2="1" gradientUnits="userSpaceOnUse" gradientTransform="matrix(-0.502,255.893,-255.907,-0.502,198.012,51.077)">
			<stop offset="0" stop-color="#8e54e9"/>
			<stop offset=".594" stop-color="#6567e7"/>
			<stop offset="1" stop-color="#4776e6"/>
		</linearGradient>
		<linearGradient id="g13" x2="1" gradientUnits="userSpaceOnUse" gradientTransform="matrix(-138.284,192.061,-192.025,-138.258,230.744,-45.923)">
			<stop offset="0" stop-color="#4776e6"/>
			<stop offset=".182" stop-color="#477ce6"/>
			<stop offset=".423" stop-color="#478de6"/>
			<stop offset=".696" stop-color="#47a8e6"/>
			<stop offset=".992" stop-color="#47cee6"/>
			<stop offset="1" stop-color="#47cfe6"/>
		</linearGradient>
	</defs>
	<style>
		tspan { white-space:pre } 
		.s0 { fill: url(#g1) } 
		.s1 { fill: url(#g2) } 
		.s2 { fill: url(#g3) } 
		.s3 { fill: url(#g4) } 
		.s4 { fill: none;stroke: #f2f2f2;stroke-miterlimit:10;stroke-width: 10 } 
		.s5 { fill: url(#g5) } 
		.s6 { fill: url(#g6) } 
		.s7 { fill: url(#g7) } 
		.s8 { fill: url(#g8) } 
		.s9 { fill: url(#g9) } 
		.s10 { fill: url(#g10) } 
		.s11 { fill: url(#g11) } 
		.s12 { fill: url(#g12) } 
		.s13 { fill: url(#g13) } 
		.t14 { font-size: 35px;fill: #4776e6;font-weight: bold;font-family: "' Poppins" } 
	</style>
	<g id="Background">
	</g>
	<g id="Objects">
		<g id="Layer">
			<g id="Layer">
				<g id="Layer">
					<g id="Layer">
						<path id="Layer" class="s0" d="m196.7 141.1c-1.3-1.3-1.7-3.3-0.8-5.1 10.2-21.4 10.3-46.1 0.3-67.7-1-2.2-0.1-4.8 2.2-5.9 2.2-1 4.8 0 5.9 2.2 11.1 24 11 51.4-0.4 75.3-1.1 2.2-3.7 3.1-5.9 2.1q-0.7-0.4-1.3-0.9z"/>
					</g>
					<g id="Layer">
						<path id="Layer" class="s1" d="m87.4 28.8q-0.5-0.5-0.9-1.3c-1-2.2-0.1-4.8 2.2-5.9 23.9-11.1 51.4-10.9 75.2 0.4 2.3 1.1 3.2 3.7 2.1 5.9-1 2.3-3.7 3.2-5.9 2.1-21.4-10.2-46.1-10.3-67.7-0.3-1.7 0.8-3.7 0.4-5-0.9z"/>
					</g>
					<g id="Layer">
						<path id="Layer" class="s2" d="m46.6 138.5q-0.5-0.5-0.9-1.3c-11.1-23.9-11-51.4 0.4-75.2 1.1-2.2 3.7-3.2 5.9-2.1 2.2 1 3.2 3.7 2.1 5.9-10.2 21.5-10.3 46.1-0.3 67.7 1 2.2 0.1 4.9-2.2 5.9-1.7 0.8-3.7 0.4-5-0.9z"/>
					</g>
					<g id="Layer">
						<path id="Layer" class="s3" d="m85.8 178.9c-1.3-1.2-1.7-3.3-0.8-5 1-2.2 3.7-3.2 5.9-2.1 9 4.3 18.6 6.8 28.5 7.5 2.5 0.2 5 0.2 7.5 0.2 11-0.3 21.7-2.7 31.7-7.4 2.2-1 4.9 0 5.9 2.2 1 2.2 0 4.9-2.2 5.9-11.1 5.1-22.9 7.9-35.2 8.2-2.8 0-5.6 0-8.3-0.2-11.1-0.8-21.8-3.6-31.7-8.4q-0.7-0.3-1.3-0.9z"/>
					</g>
				</g>
				<g id="Layer">
					<path id="Layer" class="s4" d=""/>
				</g>
				<g id="Layer">
					<path id="Layer" class="s5" d="m197.5 34.7l-40.1 40.1-6.3-6.3 4.7-4.6 7.6-7.7c-18.8-16.2-45.6-18.6-66.7-7-1.8 0.9-3.9 0.7-5.3-0.7-2.1-2.1-1.6-5.7 1-7.1 24.5-13.4 55.6-10.6 77.3 8.5l16.4-16.3 5.1-5.2c0.1 1.6 0.7 3.2 1.9 4.4 1.2 1.2 2.8 1.9 4.4 1.9z"/>
					<g id="Layer">
						<path id="Layer" fill-rule="evenodd" class="s6" d="m206.9 37.3c-3.9 3.9-9.8 4.7-14.5 2.5q-2.1-0.9-3.7-2.5-1.7-1.7-2.6-3.7c-2.2-4.8-1.4-10.6 2.6-14.6 5-5 13.2-5 18.2 0 5 5.1 5 13.2 0 18.3zm-4.5-13.8c-2.5-2.6-6.7-2.6-9.3 0-1.4 1.3-2 3.2-1.9 4.9 0.1 1.6 0.7 3.2 1.9 4.4 1.2 1.2 2.8 1.9 4.4 1.9 1.8 0.1 3.6-0.5 4.9-1.9 2.6-2.6 2.6-6.7 0-9.3z"/>
					</g>
				</g>
				<g id="Layer">
					<path id="Layer" class="s7" d="m157.6 160.4c-9.2 5.1-19.5 8-30.3 8.3v0.1h-1.8c-9.5 0.1-18.7-1.8-27.4-5.5-6.5-2.9-12.5-6.7-17.8-11.4l-21.5 21.5c-0.1-1.6-0.7-3.2-1.9-4.4-1.2-1.2-2.8-1.8-4.4-1.9l5.1-5.1 16.4-16.3 6.3-6.3 7.6-7.7 4.7-4.7 1.5 1.5 3.2 3.2 1.6 1.6-4.7 4.7-7.6 7.6c4.5 3.9 9.5 7.1 15 9.5 7.3 3.1 15 4.7 22.9 4.8h0.9c9.9-0.1 19.5-2.6 27.9-7.2 1.8-1 3.9-0.7 5.3 0.7 2.1 2.1 1.6 5.6-1 7z"/>
					<g id="Layer">
						<path id="Layer" fill-rule="evenodd" class="s8" d="m61.3 182.8c-5 5-13.2 5-18.2 0-5-5-5-13.2 0-18.2 3.9-3.9 9.8-4.8 14.5-2.6 1.4 0.6 2.6 1.5 3.7 2.6 1.1 1.1 2 2.3 2.6 3.7 2.2 4.7 1.4 10.6-2.6 14.5zm-2.5-9.4c-0.1-1.6-0.7-3.2-1.9-4.4-1.2-1.2-2.8-1.8-4.4-1.9-1.8-0.1-3.6 0.6-4.9 1.9-2.6 2.6-2.6 6.8 0 9.4 2.5 2.5 6.7 2.5 9.3 0 1.4-1.4 2-3.2 1.9-5z"/>
					</g>
				</g>
				<g id="Layer">
					<g id="Layer">
						<path id="Layer" class="s9" d="m83.3 59.2c-11 11.1-17.2 25.7-17.3 41.3 0 8.1 1.6 16.3 4.8 23.8q1.1 2.6 2.5 5c0.9 1.7 0.6 3.9-0.8 5.2-2.1 2.2-5.6 1.6-7-1q-1.6-2.7-2.8-5.7c-3.8-8.7-5.6-17.9-5.6-27.4 0.2-16.4 6.1-32 16.9-44.2l-21.5-21.5c1.6 0 3.2-0.7 4.4-1.9 1.2-1.2 1.8-2.8 1.9-4.4l5.1 5.2 22.7 22.6q-1.7 1.4-3.3 3z"/>
						<g id="Layer">
							<path id="Layer" fill-rule="evenodd" class="s10" d="m63.9 33.6q-0.9 2-2.6 3.7c-1.1 1.1-2.3 1.9-3.7 2.5-4.7 2.2-10.6 1.4-14.5-2.5-5-5.1-5-13.2 0-18.3 5.1-5 13.2-5 18.2 0 4 4 4.8 9.8 2.6 14.6zm-5.1-5.2c0.1-1.7-0.5-3.6-1.9-4.9-2.6-2.6-6.8-2.6-9.3 0-2.6 2.6-2.6 6.7 0 9.3 1.3 1.4 3.1 2 4.9 1.9 1.6 0 3.2-0.7 4.4-1.9 1.2-1.2 1.8-2.8 1.9-4.4z"/>
						</g>
					</g>
					<g id="Layer">
						<path id="Layer" class="s11" d="m197.5 167.1c-1.6 0.1-3.2 0.7-4.4 1.9-1.2 1.2-1.8 2.8-1.9 4.4l-27.8-27.8q1.7-1.4 3.3-3c18.9-18.9 22.3-47.6 10-70q-0.5-1.1-0.5-2.2c0-1.1 0.4-2.2 1.3-3.1 2.1-2.1 5.6-1.6 7 1 13.4 24.5 10.6 55.6-8.5 77.4l16.3 16.3z"/>
						<g id="Layer">
							<path id="Layer" fill-rule="evenodd" class="s12" d="m206.9 182.8c-5 5-13.2 5-18.2 0-4-3.9-4.8-9.8-2.6-14.5 0.6-1.4 1.5-2.6 2.6-3.7 1.1-1.1 2.3-2 3.6-2.6 4.8-2.2 10.7-1.3 14.6 2.6 5 5 5 13.2 0 18.2zm-4.5-13.8c-1.3-1.3-3.1-2-4.9-1.9-1.6 0.1-3.2 0.7-4.4 1.9-1.2 1.2-1.8 2.8-1.9 4.4-0.1 1.8 0.5 3.6 1.9 5 2.6 2.5 6.8 2.5 9.3 0 2.6-2.6 2.6-6.8 0-9.4z"/>
						</g>
					</g>
				</g>
				<g id="Layer">
					<path id="Layer" class="s4" d=""/>
				</g>
				<path id="Layer" class="s4" d=""/>
				<path id="Layer" fill-rule="evenodd" class="s13" d="m173.2 100.9c0 12.2-4.5 23.6-12.6 32.5v0.1l-1.3 1.3c-4.7 4.8-10.3 8.5-16.5 10.9-5.7 2.3-11.7 3.4-17.8 3.4-6.1 0-12.1-1.1-17.8-3.4-4.8-1.9-9.1-4.5-13-7.7q-1.8-1.5-3.5-3.2-1.5-1.5-2.8-3.1c-7.2-8.6-11.1-19.4-11.1-30.8 0-26.6 21.6-48.2 48.2-48.2 11.7 0 22.4 4.2 30.8 11.2q3.4 2.8 6.3 6.2c6.9 8.4 11.1 19.1 11.1 30.8zm-25.2 31.9c-4.1-9-13-14.8-22.9-14.8q-0.1 0-0.1 0 0 0 0 0c-10 0-18.9 5.8-23 14.8 2.6 1.9 5.5 3.5 8.5 4.7 4.6 1.8 9.5 2.7 14.5 2.7 5 0 9.9-0.9 14.5-2.7q4.6-1.8 8.5-4.7zm16.3-31.9c0-21.7-17.6-39.3-39.3-39.3-21.7 0-39.3 17.6-39.3 39.3 0 9.5 3.3 18.5 9.5 25.6q0 0 0 0c3.8-6.7 9.6-11.9 16.6-14.8q0 0 0 0c-2.5-3-3.8-6.8-3.8-10.8 0-9.4 7.6-17 17-17 9.4 0 17 7.6 17 17 0 3.9-1.2 7.5-3.6 10.5v0.2l-0.2 0.1c7 2.9 12.8 8.1 16.6 14.8q0 0 0 0c6.2-7.1 9.5-16.1 9.5-25.6zm-45.1 5.7c0.8 0.8 1.8 1.5 2.8 1.9 0.9 0.4 2 0.6 3 0.6q1.5 0 3-0.6c1-0.4 1.9-1 2.7-1.7l0.1-0.2c1.5-1.5 2.3-3.5 2.3-5.7 0-4.5-3.6-8.1-8.1-8.1-4.5 0-8.1 3.6-8.1 8.1 0 2.2 0.8 4.2 2.3 5.7z"/>
			</g>
		</g>
	</g>
	<g id="Texts">
		<text id="Solutions" style="transform: matrix(1,0,0,1,34.86,235.386)" >
			<tspan x="0" y="0" class="t14">S</tspan><tspan  y="0" class="t14">o</tspan><tspan  y="0" class="t14">l</tspan><tspan  y="0" class="t14">u</tspan><tspan  y="0" class="t14">t</tspan><tspan  y="0" class="t14">i</tspan><tspan  y="0" class="t14">o</tspan><tspan  y="0" class="t14">n</tspan><tspan  y="0" class="t14">s
</tspan>
		</text>
		<g id="Layer">
		</g>
	</g>
</svg>